<svg width="25" height="24" viewBox="0 0 25 24" fill="none" xmlns="http://www.w3.org/2000/svg">
<path d="M3.39941 21V19C3.39941 17.9391 3.82084 16.9217 4.57099 16.1716C5.32113 15.4214 6.33855 15 7.39941 15H11.3994C12.4603 15 13.4777 15.4214 14.2278 16.1716C14.978 16.9217 15.3994 17.9391 15.3994 19V21M16.3994 3.12988C17.2598 3.35018 18.0225 3.85058 18.5671 4.55219C19.1117 5.2538 19.4073 6.11671 19.4073 7.00488C19.4073 7.89305 19.1117 8.75596 18.5671 9.45757C18.0225 10.1592 17.2598 10.6596 16.3994 10.8799M21.3994 20.9999V18.9999C21.3943 18.1171 21.0973 17.2607 20.5547 16.5643C20.012 15.8679 19.2542 15.3706 18.3994 15.1499M5.39941 7C5.39941 8.06087 5.82084 9.07828 6.57099 9.82843C7.32113 10.5786 8.33855 11 9.39941 11C10.4603 11 11.4777 10.5786 12.2278 9.82843C12.978 9.07828 13.3994 8.06087 13.3994 7C13.3994 5.93913 12.978 4.92172 12.2278 4.17157C11.4777 3.42143 10.4603 3 9.39941 3C8.33855 3 7.32113 3.42143 6.57099 4.17157C5.82084 4.92172 5.39941 5.93913 5.39941 7Z" stroke="none" stroke-width="6" stroke-linecap="round" stroke-linejoin="round"/>
</svg>
