<svg width="21" height="21" viewBox="0 0 21 21" fill="none" xmlns="http://www.w3.org/2000/svg">
<path d="M13.5471 7.25309C13.3659 6.93885 13.1027 6.67979 12.7857 6.50364C12.4686 6.32749 12.1096 6.24088 11.7471 6.25309H9.74707C9.21664 6.25309 8.70793 6.4638 8.33286 6.83887C7.95779 7.21395 7.74707 7.72265 7.74707 8.25309C7.74707 8.78352 7.95779 9.29223 8.33286 9.6673C8.70793 10.0424 9.21664 10.2531 9.74707 10.2531H11.7471C12.2775 10.2531 12.7862 10.4638 13.1613 10.8389C13.5364 11.2139 13.7471 11.7227 13.7471 12.2531C13.7471 12.7835 13.5364 13.2922 13.1613 13.6673C12.7862 14.0424 12.2775 14.2531 11.7471 14.2531H9.74707C9.38456 14.2653 9.02556 14.1787 8.70849 14.0025C8.39142 13.8264 8.12822 13.5673 7.94707 13.2531M10.7471 5.25293V15.2529M1.74707 10.2529C1.74707 11.4348 1.97986 12.6052 2.43215 13.6971C2.88445 14.789 3.54738 15.7812 4.38311 16.6169C5.21884 17.4526 6.21099 18.1156 7.30292 18.5678C8.39485 19.0201 9.56517 19.2529 10.7471 19.2529C11.929 19.2529 13.0993 19.0201 14.1912 18.5678C15.2832 18.1156 16.2753 17.4526 17.111 16.6169C17.9468 15.7812 18.6097 14.789 19.062 13.6971C19.5143 12.6052 19.7471 11.4348 19.7471 10.2529C19.7471 9.07103 19.5143 7.90071 19.062 6.80878C18.6097 5.71685 17.9468 4.7247 17.111 3.88897C16.2753 3.05324 15.2832 2.39031 14.1912 1.93801C13.0993 1.48572 11.929 1.25293 10.7471 1.25293C9.56517 1.25293 8.39485 1.48572 7.30292 1.93801C6.21099 2.39031 5.21884 3.05324 4.38311 3.88897C3.54738 4.7247 2.88445 5.71685 2.43215 6.80878C1.97986 7.90071 1.74707 9.07103 1.74707 10.2529Z" stroke="#6488F7" stroke-width="1.77108" stroke-linecap="round" stroke-linejoin="round"/>
</svg>
