<svg width="25" height="24" viewBox="0 0 25 24" fill="none" xmlns="http://www.w3.org/2000/svg">
<path d="M9.59961 21V15C9.59961 14.4696 9.81032 13.9609 10.1854 13.5858C10.5605 13.2107 11.0692 13 11.5996 13H13.5996C14.13 13 14.6387 13.2107 15.0138 13.5858C15.3889 13.9609 15.5996 14.4696 15.5996 15V21M5.59961 12H3.59961L12.5996 3L21.5996 12H19.5996V19C19.5996 19.5304 19.3889 20.0391 19.0138 20.4142C18.6387 20.7893 18.13 21 17.5996 21H7.59961C7.06918 21 6.56047 20.7893 6.1854 20.4142C5.81032 20.0391 5.59961 19.5304 5.59961 19V12Z" stroke="none" stroke-width="none" stroke-linecap="round" stroke-linejoin="round"/>
</svg>
