<svg width="16" height="16" viewBox="0 0 16 16" fill="none" xmlns="http://www.w3.org/2000/svg">
<path d="M12.9999 8.38145L7.99987 13.3335L2.99988 8.38145C2.67008 8.06053 2.4103 7.67479 2.23691 7.24854C2.06351 6.82229 1.98025 6.36475 1.99237 5.90474C2.00448 5.44473 2.11172 4.99221 2.30731 4.57568C2.50291 4.15914 2.78263 3.78762 3.12887 3.4845C3.4751 3.18139 3.88035 2.95324 4.31908 2.81444C4.75782 2.67563 5.22055 2.62917 5.67812 2.67799C6.1357 2.7268 6.57821 2.86982 6.97779 3.09806C7.37738 3.32629 7.72537 3.63478 7.99987 4.00412C8.27556 3.63747 8.62397 3.33166 9.02328 3.10585C9.42258 2.88004 9.8642 2.73908 10.3205 2.6918C10.7768 2.64451 11.2379 2.69192 11.6751 2.83105C12.1122 2.97017 12.5159 3.19803 12.8609 3.50036C13.2059 3.80269 13.4848 4.17297 13.6802 4.58805C13.8755 5.00312 13.983 5.45404 13.9961 5.91259C14.0091 6.37114 13.9274 6.82745 13.756 7.25295C13.5845 7.67846 13.3271 8.064 12.9999 8.38545M7.99986 4.00033L5.80453 6.19566C5.67954 6.32068 5.60933 6.49022 5.60933 6.66699C5.60933 6.84377 5.67954 7.01331 5.80453 7.13833L6.16653 7.50033C6.62653 7.96033 7.37319 7.96033 7.83319 7.50033L8.49986 6.83366C8.89769 6.43584 9.43725 6.21234 9.99986 6.21234C10.5625 6.21234 11.102 6.43584 11.4999 6.83366L12.9999 8.33366M8.33321 10.3337L9.66654 11.667M9.99988 8.66699L11.3332 10.0003" stroke="#6488F7" stroke-linecap="round" stroke-linejoin="round"/>
</svg>
