<svg width="25" height="24" viewBox="0 0 25 24" fill="none" xmlns="http://www.w3.org/2000/svg">
<path d="M9.40063 11V6C9.40063 5.20435 9.7167 4.44129 10.2793 3.87868C10.8419 3.31607 11.605 3 12.4006 3C13.1963 3 13.9593 3.31607 14.522 3.87868C15.0846 4.44129 15.4006 5.20435 15.4006 6V11M6.73168 8H18.0707C18.3591 7.99997 18.644 8.06229 18.906 8.1827C19.1681 8.30311 19.401 8.47876 19.5887 8.6976C19.7765 8.91645 19.9148 9.17331 19.994 9.45059C20.0732 9.72786 20.0915 10.019 20.0477 10.304L18.7927 18.456C18.6837 19.1644 18.3247 19.8105 17.7807 20.2771C17.2366 20.7438 16.5435 21.0002 15.8267 21H8.97468C8.25808 21 7.56516 20.7434 7.02131 20.2768C6.47746 19.8102 6.11861 19.1643 6.00968 18.456L4.75468 10.304C4.71085 10.019 4.72917 9.72786 4.80839 9.45059C4.88761 9.17331 5.02585 8.91645 5.21363 8.6976C5.40141 8.47876 5.6343 8.30311 5.89633 8.1827C6.15835 8.06229 6.44332 7.99997 6.73168 8Z" stroke="none" stroke-width="none" stroke-linecap="round" stroke-linejoin="round"/>
</svg>
