<svg width="16" height="21" viewBox="0 0 16 21" fill="none" xmlns="http://www.w3.org/2000/svg">
<path d="M2.79948 15.7083C3.24151 15.7083 3.66543 15.9278 3.97799 16.3185C4.29055 16.7092 4.46615 17.2391 4.46615 17.7917C4.46615 18.3442 4.29055 18.8741 3.97799 19.2648C3.66543 19.6555 3.24151 19.875 2.79948 19.875C2.35745 19.875 1.93353 19.6555 1.62097 19.2648C1.30841 18.8741 1.13281 18.3442 1.13281 17.7917C1.13281 17.2391 1.30841 16.7092 1.62097 16.3185C1.93353 15.9278 2.35745 15.7083 2.79948 15.7083ZM2.79948 15.7083H11.9661M2.79948 15.7083V1.125H1.13281M11.9661 15.7083C12.4082 15.7083 12.8321 15.9278 13.1447 16.3185C13.4572 16.7092 13.6328 17.2391 13.6328 17.7917C13.6328 18.3442 13.4572 18.8741 13.1447 19.2648C12.8321 19.6555 12.4082 19.875 11.9661 19.875C11.5241 19.875 11.1002 19.6555 10.7876 19.2648C10.4751 18.8741 10.2995 18.3442 10.2995 17.7917C10.2995 17.2391 10.4751 16.7092 10.7876 16.3185C11.1002 15.9278 11.5241 15.7083 11.9661 15.7083ZM2.79948 3.20833L14.4661 4.25L13.6328 11.5417H2.79948" stroke="none" stroke-width="none" stroke-linecap="round" stroke-linejoin="round"/>
</svg>
