<svg width="25" height="24" viewBox="0 0 25 24" fill="none" xmlns="http://www.w3.org/2000/svg">
<path d="M6.3598 17.009L18.1988 17M12.1988 3C14.1168 3 15.7188 4.35 16.1088 6.151C17.1329 5.87385 18.2252 6.01488 19.1454 6.54308C20.0655 7.07128 20.7382 7.94337 21.0153 8.9675C21.2925 9.99163 21.1514 11.0839 20.6232 12.0041C20.095 12.9242 19.2229 13.5968 18.1988 13.874V21H6.1988V13.874C5.6917 13.7366 5.21663 13.5007 4.80069 13.1798C4.38476 12.8588 4.03612 12.4591 3.77468 12.0034C3.51323 11.5477 3.34411 11.0449 3.27696 10.5239C3.2098 10.0028 3.24594 9.4736 3.3833 8.9665C3.52067 8.4594 3.75656 7.98432 4.07753 7.56839C4.39849 7.15246 4.79824 6.80382 5.25394 6.54237C5.70965 6.28093 6.21238 6.1118 6.73345 6.04465C7.25451 5.9775 7.7837 6.01364 8.2908 6.151C8.48464 5.25857 8.97802 4.45933 9.68895 3.88611C10.3999 3.31289 11.2856 3.0002 12.1988 3Z" stroke="none" stroke-width="none" stroke-linecap="round" stroke-linejoin="round"/>
</svg>
