<svg width="16" height="16" viewBox="0 0 16 16" fill="none" xmlns="http://www.w3.org/2000/svg">
<path d="M9.33366 4C9.51047 4 9.68004 3.92976 9.80506 3.80474C9.93009 3.67971 10.0003 3.51014 10.0003 3.33333V2.66667C10.0003 2.48986 9.93009 2.32029 9.80506 2.19526C9.68004 2.07024 9.51047 2 9.33366 2H6.66699C6.49018 2 6.32061 2.07024 6.19559 2.19526C6.07056 2.32029 6.00033 2.48986 6.00033 2.66667V3.33333C6.00033 3.51014 6.07056 3.67971 6.19559 3.80474C6.32061 3.92976 6.49018 4 6.66699 4M9.33366 4H6.66699M9.33366 4V4.65333C9.33375 4.93655 9.43429 5.21055 9.61739 5.42661C9.8005 5.64267 10.0543 5.78679 10.3337 5.83333C10.911 5.92933 11.3337 6.42867 11.3337 7.01333V12.6667C11.3337 13.0203 11.1932 13.3594 10.9431 13.6095C10.6931 13.8595 10.3539 14 10.0003 14H6.00033C5.6467 14 5.30756 13.8595 5.05752 13.6095C4.80747 13.3594 4.66699 13.0203 4.66699 12.6667V7.01333C4.66699 6.42867 5.08966 5.92933 5.66699 5.83333C6.24433 5.73733 6.66699 5.238 6.66699 4.65333V4M4.66699 8H11.3337M4.66699 12H11.3337M7.33366 10H8.66699" stroke="#D40000" stroke-linecap="round" stroke-linejoin="round"/>
</svg>
