<svg width="16" height="16" viewBox="0 0 16 16" fill="none" xmlns="http://www.w3.org/2000/svg">
<path d="M9.33301 5.33333H7.66634C7.40112 5.33333 7.14677 5.43869 6.95923 5.62623C6.7717 5.81376 6.66634 6.06812 6.66634 6.33333C6.66634 6.59855 6.7717 6.8529 6.95923 7.04044C7.14677 7.22798 7.40112 7.33333 7.66634 7.33333H8.33301C8.59822 7.33333 8.85258 7.43869 9.04011 7.62623C9.22765 7.81376 9.33301 8.06812 9.33301 8.33333C9.33301 8.59855 9.22765 8.8529 9.04011 9.04044C8.85258 9.22798 8.59822 9.33333 8.33301 9.33333H6.66634M7.99967 9.33333V10.3333M7.99967 4.33333V5.33333M3.33301 14V3.33333C3.33301 2.97971 3.47348 2.64057 3.72353 2.39052C3.97358 2.14048 4.31272 2 4.66634 2H11.333C11.6866 2 12.0258 2.14048 12.2758 2.39052C12.5259 2.64057 12.6663 2.97971 12.6663 3.33333V14L10.6663 12.6667L9.33301 14L7.99967 12.6667L6.66634 14L5.33301 12.6667L3.33301 14Z" stroke="#ED6C02" stroke-linecap="round" stroke-linejoin="round"/>
</svg>
